# xmcd
#
# Track frame offsets:
#	150
#	10690
#	21215
#	35475
#	45897
#	59477
#	70046
#	80418
#	92084
#	102621
#	113147
#	123213
#
# Disc length: 1843 seconds
#
# Revision: 0
# Processed by: cddbd v1.5.2PL0 Copyright (c) Steve Scherf et al.
# Submitted via: EasyCDDAExtractor 11.0.2.1
#
DISCID=9007310c
DTITLE=Various Artist - Ultimate Doo-Wop Classics - Volume 1 - Disc 1
DYEAR=2001
DGENRE=DooWop
TTITLE0=Little Anthony and The Imperials - Tears On My Pillow
TTITLE1=Frankie Lymon and The Teenagers - Why Do Fools Fall In Love
TTITLE2=The Clovers - Ting-a-Ling
TTITLE3=Dubs - Could This Be The Magic
TTITLE4=The Orioles - It's Too Soon To Know
TTITLE5=The Valentinos - Lily Maebelle
TTITLE6=The Heartbeats - Crazy For You
TTITLE7=The Channels - That's My Desire
TTITLE8=The Chantels - Look In My Eyes
TTITLE9=The Devotions - Rip Van Winkle
TTITLE10=The Crows - Gee
TTITLE11=The Flamingoes - I Only Have Eyes For You
EXTD=
EXTT0=
EXTT1=
EXTT2=
EXTT3=
EXTT4=
EXTT5=
EXTT6=
EXTT7=
EXTT8=
EXTT9=
EXTT10=
EXTT11=
PLAYORDER=
